<svg width="1143" height="271" viewBox="0 0 1143 271" fill="none" xmlns="http://www.w3.org/2000/svg">
<path d="M296.188 50.4713V69.911H270.674V138.355C270.674 152.368 277.72 154.959 285.577 154.959C289.465 154.959 292.462 154.23 294.082 153.907L298.456 173.913C295.621 174.966 290.437 176.424 282.742 176.505C263.627 176.91 246.374 165.975 246.455 143.377V69.911H228.23V50.4713H246.455V20.6638H270.674V50.4713H296.188Z" fill="black"/>
<path d="M309.293 174.885V50.4713H332.701V70.2349H333.997C338.533 56.8702 351.007 48.6083 365.587 48.6083C368.665 48.6083 373.444 48.8513 375.874 49.1753V72.3409C373.93 71.7739 368.26 70.8829 363.238 70.8829C346.066 70.8829 333.511 82.6277 333.511 98.9085V174.885H309.293Z" fill="black"/>
<path d="M463.958 123.289V50.4713H488.258V174.885H464.444V153.34H463.148C457.397 166.623 444.68 176.505 425.97 176.505C402.075 176.505 385.147 160.467 385.147 129.607V50.4713H409.365V126.691C409.365 143.62 419.733 154.473 434.718 154.473C448.325 154.473 464.039 144.43 463.958 123.289Z" fill="black"/>
<path d="M559.519 177.396C523.394 177.396 501.524 150.748 501.524 113.245C501.524 75.2569 524.204 48.8513 559.276 48.8513C587.545 48.8513 606.038 65.537 608.63 90.6466H585.059C582.467 78.9828 575.071 69.263 559.681 69.263C539.432 69.263 525.986 86.0297 525.986 112.678C525.986 139.813 539.189 156.903 559.681 156.903C573.532 156.903 583.981 148.966 587.059 135.52H610.63C607.957 159.738 588.922 177.396 559.519 177.396Z" fill="black"/>
<path d="M622.843 174.885L620.843 9.00001H645.062L647.062 103.12H649.168L698.739 50.4713H727.736L677.355 103.849L731.138 174.885H701.412L659.131 118.672L647.062 130.741V174.885H622.843Z" fill="black"/>
<path d="M821.922 80.8458L799.971 84.7337C797.136 76.3908 790.17 68.048 775.105 68.048C761.335 68.048 750.967 74.8519 751.048 84.4097C750.967 92.8336 756.88 97.4505 770.569 100.69L790.332 105.226C813.174 110.491 824.352 121.345 824.352 138.922C824.352 161.439 803.535 177.396 773.485 177.396C745.54 177.396 727.234 165.003 723.184 142.972L746.593 139.408C749.509 151.639 758.824 157.875 773.323 157.875C789.198 157.875 799.485 150.343 799.485 140.704C799.485 132.928 793.896 127.582 781.908 124.909L758.5 118.672C738.5 113.164 730.26 99.4132 730.26 84.7057C730.26 62.6741 746.755 48.8513 774.862 48.8513C801.753 48.8513 816.9 61.4871 821.922 80.8458Z" fill="black"/>
<path d="M895.37 50.4713V69.911H869.856V138.355C869.856 152.368 876.903 154.959 884.76 154.959C888.648 154.959 891.644 154.23 893.264 153.907L897.638 173.913C894.803 174.966 889.62 176.424 881.925 176.505C862.809 176.91 845.556 165.975 845.637 143.377V69.911H827.413V50.4713H845.637V20.6638H869.856V50.4713H895.37Z" fill="black"/>
<path d="M957.545 177.396C922.472 177.396 899.55 151.72 899.55 113.245C899.55 74.5279 922.472 48.8513 957.545 48.8513C992.617 48.8513 1015.54 74.5279 1015.54 113.245C1015.54 151.72 992.617 177.396 957.545 177.396ZM957.626 157.065C980.386 157.065 991.078 137.059 991.078 113.164C991.078 89.3506 980.386 69.101 957.626 69.101C934.703 69.101 924.011 89.3506 924.011 113.164C924.011 137.059 934.703 157.065 957.626 157.065Z" fill="black"/>
<path d="M1028.89 259.062V50.4713H1052.54V70.6399H1054.56C1058.86 62.9451 1067.2 48.8513 1090.28 48.8513C1120.33 48.8513 1142.53 72.5839 1142.53 112.921C1142.53 153.178 1120.66 177.315 1090.53 177.315C1067.85 177.315 1058.94 163.464 1054.56 155.526H1053.11V259.062H1028.89ZM1052.62 112.678C1052.62 138.841 1064.28 156.66 1085.1 156.66C1106.73 156.66 1118.07 137.626 1118.07 112.678C1118.07 87.9736 1107.05 69.425 1085.1 69.425C1063.96 69.425 1052.62 86.6777 1052.62 112.678Z" fill="black"/>
<path d="M804.262 257.025C800.337 257.025 797.126 253.849 797.126 249.889C797.126 246 800.337 242.789 804.262 242.789C808.151 242.789 811.397 246 811.397 249.889C811.397 253.849 808.151 257.025 804.262 257.025Z" fill="#737572"/>
<path d="M844.751 257.453C828.839 257.453 819.206 245.715 819.206 229.196C819.206 212.463 829.196 200.832 844.644 200.832C857.096 200.832 866.122 208.181 867.264 219.242H856.882C855.74 214.104 851.601 209.823 844.823 209.823C835.903 209.823 829.981 217.208 829.981 228.946C829.981 240.898 835.796 248.426 844.823 248.426C850.924 248.426 855.526 244.93 856.882 239.007H867.264C866.087 249.675 857.702 257.453 844.751 257.453Z" fill="#737572"/>
<path d="M897.737 257.453C882.288 257.453 872.191 246.143 872.191 229.196C872.191 212.142 882.288 200.832 897.737 200.832C913.185 200.832 923.282 212.142 923.282 229.196C923.282 246.143 913.185 257.453 897.737 257.453ZM897.773 248.498C907.798 248.498 912.508 239.685 912.508 229.16C912.508 218.671 907.798 209.751 897.773 209.751C887.676 209.751 882.966 218.671 882.966 229.16C882.966 239.685 887.676 248.498 897.773 248.498Z" fill="#737572"/>
<path d="M931.171 256.347V201.545H941.411V210.465H942.089C944.372 204.435 949.759 200.832 957.002 200.832C964.316 200.832 969.346 204.471 971.737 210.465H972.308C974.948 204.614 980.87 200.832 988.755 200.832C998.674 200.832 1005.67 207.075 1005.67 219.598V256.347H994.999V220.597C994.999 213.176 990.361 210.037 984.724 210.037C977.766 210.037 973.735 214.818 973.735 221.418V256.347H963.103V219.92C963.103 213.961 959 210.037 953.077 210.037C947.012 210.037 941.839 215.174 941.839 222.56V256.347H931.171Z" fill="#737572"/>
<path d="M104.065 9C51.5861 9.05749 9.0582 51.5854 9.00071 104.064C8.91859 125.177 15.9424 145.703 28.9419 162.34L104.012 257.143L179.1 162.323C192.11 145.696 199.146 125.175 199.076 104.064C199.019 51.6057 156.523 9.08622 104.065 9V9Z" fill="#D70119"/>
<path d="M103.775 14.4693C153.143 14.5555 193.12 54.532 193.163 103.9C193.206 123.759 186.615 143.058 174.381 158.695L103.775 247.264L33.1271 158.738C20.8929 143.101 14.2589 123.759 14.345 103.9C14.3881 54.532 54.4078 14.5124 103.775 14.4693ZM155.598 47.6826C126.305 20.6726 81.2024 20.6726 51.9092 47.6826C22.6161 74.6926 18.9975 119.709 43.5951 151.027L103.775 224.992L163.956 151.027C188.553 119.666 184.935 74.6926 155.642 47.6826H155.598Z" fill="white"/>
<path d="M103.517 52.852C105.499 52.852 107.437 52.852 109.289 52.852C108.643 50.1812 106.403 48.2426 103.775 48.2426C101.148 48.2426 98.9075 50.1381 98.2614 52.852C99.9414 52.852 101.708 52.852 103.517 52.852Z" fill="white"/>
<path d="M148.964 64.2677C148.964 64.2677 134.706 61.4246 103.517 61.4246C72.3283 61.4246 58.5433 64.2677 58.5433 64.2677L55.054 93.8624C55.054 93.8624 67.0297 89.8131 103.818 89.8131C140.607 89.8131 152.54 93.8624 152.54 93.8624L148.921 64.2677H148.964Z" fill="white"/>
<path d="M142.934 129.23C138.238 129.23 134.404 133.064 134.404 137.759C134.404 142.455 138.195 146.289 142.934 146.289C147.629 146.289 151.463 142.498 151.463 137.759C151.463 135.476 150.558 133.322 148.964 131.728C147.371 130.134 145.174 129.23 142.934 129.23Z" fill="white"/>
<path d="M63.885 129.23C59.1895 129.23 55.3555 133.064 55.3555 137.759C55.3555 142.455 59.1464 146.289 63.885 146.289C68.5805 146.289 72.4145 142.498 72.4145 137.759C72.4145 135.476 71.5098 133.322 69.916 131.728C68.3221 130.134 66.1251 129.23 63.885 129.23Z" fill="white"/>
<path d="M103.862 100.324C96.6244 100.324 90.3781 100.496 84.9502 100.755V179.071C87.1041 180.105 89.8612 181.182 92.9628 182.087V107.647C94.9875 107.518 97.3137 107.432 99.8122 107.389V183.637C101.578 183.896 103.431 184.025 105.283 184.025C106.145 184.025 106.963 184.025 107.782 183.939V107.432C110.323 107.432 112.693 107.604 114.76 107.734V182.819C117.69 182.13 120.317 181.182 122.558 180.191V100.712C117.216 100.453 111.013 100.324 103.862 100.324Z" fill="white"/>
<path d="M86.8026 53.1535C85.9842 50.655 83.701 48.9319 81.0732 48.9319C78.2301 48.9319 75.7746 50.9566 75.1715 53.7566C78.4886 53.4982 82.3656 53.2828 86.8026 53.1105V53.1535Z" fill="white"/>
<path d="M132.422 53.7997C131.819 50.9135 129.321 48.8888 126.478 48.9319C123.85 48.9319 121.61 50.655 120.791 53.1535C125.185 53.3258 129.062 53.5412 132.422 53.7997Z" fill="white"/>
</svg>
